<?xml version="1.0" encoding="UTF-8"?>
<svg width="20px" height="18px" viewBox="0 0 20 18" version="1.1" xmlns="http://www.w3.org/2000/svg" xmlns:xlink="http://www.w3.org/1999/xlink">
    <title>E05FC6FD-A4A5-4D36-AAD3-43D04ED46F4C</title>
    <g id="Dashboard" stroke="none" stroke-width="1" fill="none" fill-rule="evenodd">
        <g id="02_EIPP_Dashboard22" transform="translate(-285.000000, -486.000000)">
            <g id="icon/PLTA" transform="translate(283.000000, 483.000000)">
                <g id="speech-bubble" transform="translate(2.000000, 2.718750)" fill="#14A2BA">
                    <path d="M17.7528125,0.28125 L2.2471875,0.28125 C1.00609375,0.28125 0,1.3663616 0,2.70486891 L0,12.4476884 C0,13.7861957 1.00609375,14.8712653 2.2471875,14.8712653 L6.78519531,14.8712653 C7.01234375,14.8712653 7.22625,14.9866437 7.36246094,15.1827072 L8.37078125,16.6336948 L9.17886719,17.7970134 C9.62785156,18.4426622 10.3721094,18.4426622 10.8211328,17.7970134 L11.6292188,16.6336948 L12.6375391,15.1827072 C12.77375,14.9866857 12.9876563,14.8712653 13.2148047,14.8712653 L17.7528125,14.8712653 C18.9939063,14.8712653 20,13.7861957 20,12.4476884 L20,2.70486891 C20,1.3663616 18.9939063,0.28125 17.7528125,0.28125 Z" id="Path" fill-rule="nonzero"></path>
                </g>
                <g id="drop-silhouette" transform="translate(9.000000, 5.000000)" fill="#FFFFFF">
                    <path d="M5.63065104,2.78382813 C4.9228125,1.61549479 4.13552083,0.604322917 3.72919271,0.105546875 C3.67481771,0.03875 3.59322917,-1.3108629e-08 3.50710937,-1.3108629e-08 C3.42096354,-1.3108629e-08 3.33940104,0.0387760417 3.285,0.105572917 C2.87869792,0.604505208 2.09140625,1.61601562 1.38356771,2.78445313 C0.471380208,4.29026042 0.00885416667,5.53523438 0.00885416667,6.48471354 C0.00885416667,8.41364583 1.57815104,9.98294271 3.50708333,9.98294271 C5.43601562,9.98294271 7.0053125,8.41364583 7.0053125,6.48471354 C7.0053125,5.53460938 6.54286458,4.28945313 5.63065104,2.78382813 Z M3.98713542,8.69447917 C3.78286458,8.74671875 3.57083333,8.77317708 3.35679688,8.77317708 C2.04986979,8.77317708 0.986614583,7.78544271 0.986614583,6.57135417 C0.986614583,6.27825521 1.06395833,5.93580729 1.21643229,5.55356771 C1.2421875,5.48898438 1.31557292,5.45213542 1.38791667,5.46776042 C1.46020833,5.48333333 1.50875,5.54635417 1.50130208,5.61489583 C1.49239583,5.696875 1.48786458,5.77695313 1.48786458,5.8528125 C1.48786458,7.17403646 2.55247396,8.28044271 3.96424479,8.42627604 C4.03450521,8.43354167 4.08932292,8.48609375 4.09492188,8.55158854 C4.10054688,8.61708333 4.05528646,8.67703125 3.98713542,8.69447917 Z" id="Shape" fill-rule="nonzero"></path>
                </g>
            </g>
        </g>
    </g>
</svg>